<?xml version="1.0" ?><svg height="24px" version="1.1" viewBox="0 0 24 24" width="24px" xmlns="http://www.w3.org/2000/svg" xmlns:sketch="http://www.bohemiancoding.com/sketch/ns" xmlns:xlink="http://www.w3.org/1999/xlink"><title/><desc/><defs/><g fill="none" fill-rule="evenodd" id="miu" stroke="none" stroke-width="1"><g id="Artboard-1" transform="translate(-791.000000, -551.000000)"><g id="slice" transform="translate(215.000000, 119.000000)"/><path d="M793.311172,552 C793.139317,552 793,552.134102 793,552.313156 L793,572.686844 C793,572.859795 793.134102,573 793.313156,573 L813.686844,573 C813.859795,573 814,572.859135 814,572.688828 L814,555.5 L810.5,552 L793.311172,552 L793.311172,552 Z M794,553 L794,572 L813,572 L813,555.850006 L810.150024,553 L794,553 L794,553 Z M809,565 L798,565 L798,571 L797,571 L797,564 L810,564 L810,571 L809,571 L809,565 Z M807,558.07959 L800,558.07959 L800,554 L799,554 L799,559 L808,559 L808,554 L807,554 L807,558.07959 Z M805,554 L805,556 L806,556 L806,554 L805,554 L805,554 Z" fill="#000000" id="editor-floopy-dish-save-outline-stroke"/></g></g></svg>